<?xml version="1.0" encoding="utf-8"?>
<!-- Generator: Adobe Illustrator 27.9.0, SVG Export Plug-In . SVG Version: 6.00 Build 0)  -->
<svg version="1.1" id="Calque_1" xmlns="http://www.w3.org/2000/svg" xmlns:xlink="http://www.w3.org/1999/xlink" x="0px" y="0px"
	 viewBox="0 0 483.1 109" style="enable-background:new 0 0 483.1 109;" xml:space="preserve">
<style type="text/css">
	.st0{clip-path:url(#SVGID_00000109012601498303836150000003456236363983343278_);fill:#50AF55;}
	.st1{fill:#50AF55;}
	.st2{fill-rule:evenodd;clip-rule:evenodd;fill:#50AF55;}
	.st3{fill:#FFFFFF;}
</style>
<g>
	<defs>
		<rect id="SVGID_1_" x="3.1" width="480" height="62"/>
	</defs>
	<clipPath id="SVGID_00000025430547039000309250000006855685659718030253_">
		<use xlink:href="#SVGID_1_"  style="overflow:visible;"/>
	</clipPath>
	<path style="clip-path:url(#SVGID_00000025430547039000309250000006855685659718030253_);fill:#50AF55;" d="M60.5,47.5
		c-2-1.6-4-3.3-6-4.9c-0.8-0.7-0.9-0.8-0.3-1.7c1.2-2.1,2-4.3,2.5-6.6c0.8-3.6,0.7-7.1-0.5-10.6c-0.4-1.2-1-2.2-1.6-3.3
		c-0.2-0.3-0.3-0.6,0-0.9c0.9-1,1.8-2,2.8-2.9c1.4-1.5,2.9-2.9,4.2-4.4c1.5-1.7,1.1-3.7-0.8-4.8c-0.5-0.4-1.1-0.7-1.7-1
		c-1.5-0.8-3-0.7-4.4-0.1c-1.2,0.5-2,1.3-2.9,2.3l-5,4.8c-0.3,0.2-0.4,0.2-0.7,0.2c-0.3,0-0.6-0.1-1-0.1c-12.5-2-19.5,5.3-19.5,5.3
		c-0.3,0.3-0.6,0.3-0.9,0c-0.9-0.7-1.8-1.3-2.6-2c-1.4-1.1-2.4-1.3-3.9-0.4c-1,0.6-1.5,1.5-2.2,2.3c-0.4,0.4-0.7,0.9-1,1.3
		c-0.8,1.3-0.7,2.6,0.4,3.7c0.9,0.9,1.8,1.8,2.8,2.7c0.4,0.3,0.4,0.6,0.2,1.1c-0.3,0.6-0.6,1.1-0.8,1.7c-2.2,5-2.8,10.1-1,15.4
		c0.3,0.8,0.1,1.2-0.4,1.8c-1.4,1.5-2.9,2.9-4.1,4.5C11,52.3,11,54,12,55.5c0.4,0.5,0.8,1,1.2,1.5c1.1,1.3,2.9,1.3,4.1,0.2
		c1.3-1.2,2.5-2.5,3.8-3.7c1.5-1.4,1-1.4,2.9-0.4c3.1,1.6,6.4,2.1,9.9,1.8c3.7-0.3,7-1.6,10.2-3.4c0.9-0.5,1-0.5,1.8,0.2l1.3,1.2
		c1.3,1.2,2.6,2.4,3.9,3.5c1.8,1.5,4.5,1.6,6.4,0.3c1.3-0.9,2.4-2,3.5-3.1C62.6,51.8,62.6,49.2,60.5,47.5 M42.7,41.4
		C38,46.2,29.8,48,25.4,43.3c-4.5-4.9-2.9-11.2,0.4-15.7c3.3-4.5,11.6-9.3,17.9-4.4C49.7,27.8,47.4,36.5,42.7,41.4"/>
	<path style="clip-path:url(#SVGID_00000025430547039000309250000006855685659718030253_);fill:#50AF55;" d="M91.7,13.1
		c0.5,0.5,0.9,1.1,1.2,1.9l7.9,27.3l8-27.3c0.2-0.8,0.6-1.4,1.1-1.9s1.2-0.7,2.1-0.7c0.9,0,1.6,0.2,2.2,0.7c0.6,0.5,1,1.2,1.2,2
		L121,49l-4.4,0.8L112,18l-9,30.3h-4.4L89.7,18l-4.5,30c-0.1,0.6-0.3,1.1-0.7,1.5c-0.4,0.3-0.9,0.5-1.6,0.5c-0.6,0-1.1-0.2-1.5-0.6
		c-0.4-0.4-0.6-0.9-0.6-1.5v-0.8l5.4-32c0.2-0.9,0.6-1.5,1.2-2c0.6-0.5,1.4-0.7,2.2-0.7C90.4,12.4,91.2,12.7,91.7,13.1"/>
	<path style="clip-path:url(#SVGID_00000025430547039000309250000006855685659718030253_);fill:#50AF55;" d="M140.5,13.1
		c0.5,0.5,0.9,1.2,1.2,2l12.8,33.7l-4.4,1.3l-3.2-8.4h-17l-2.6,6.9c-0.2,0.4-0.4,0.8-0.8,1.1c-0.4,0.3-0.8,0.4-1.3,0.4
		c-0.6,0-1.1-0.2-1.5-0.6c-0.4-0.4-0.6-0.9-0.6-1.5c0-0.4,0.1-0.8,0.3-1.2l11.8-31.6c0.3-0.7,0.6-1.4,1.1-1.9c0.5-0.6,1.1-0.8,2-0.8
		C139.3,12.4,140,12.7,140.5,13.1 M145.6,37.8l-7.2-20.1l-7.3,20.1H145.6z"/>
	<path style="clip-path:url(#SVGID_00000025430547039000309250000006855685659718030253_);fill:#50AF55;" d="M157.5,14.6
		c0-0.6,0.2-1.1,0.6-1.5c0.4-0.4,0.9-0.7,1.5-0.7s1.1,0.2,1.6,0.6c0.4,0.4,0.7,0.9,0.7,1.6v13.8l16.9-15.9l3.2,2.9l-15.9,14.8
		l16.6,16.2c0.5,0.5,0.8,1.1,0.8,1.7c0,0.6-0.2,1.1-0.6,1.4c-0.4,0.4-0.9,0.6-1.4,0.6c-0.7,0-1.3-0.3-1.8-0.8L161.9,32v17.6h-4.4
		V14.6z"/>
	<path style="clip-path:url(#SVGID_00000025430547039000309250000006855685659718030253_);fill:#50AF55;" d="M187.4,14.7
		c0-0.6,0.2-1.1,0.7-1.6c0.4-0.4,1-0.7,1.6-0.7c0.6,0,1.1,0.2,1.5,0.7c0.4,0.4,0.6,1,0.6,1.6v34.9h-4.4V14.7z"/>
	<path style="clip-path:url(#SVGID_00000025430547039000309250000006855685659718030253_);fill:#50AF55;" d="M199.7,14.6
		c0-0.6,0.2-1.1,0.7-1.6c0.4-0.4,1-0.7,1.6-0.7c0.8,0,1.4,0.3,1.8,1L223.6,42V14.6c0-0.6,0.2-1.1,0.6-1.6s0.9-0.7,1.5-0.7
		s1.2,0.2,1.6,0.7s0.6,1,0.6,1.6v33.3c0,0.6-0.2,1.1-0.6,1.6c-0.4,0.4-0.9,0.6-1.6,0.6c-0.8,0-1.4-0.3-1.8-1l-19.8-28.7v29.2
		l-4.4-0.1V14.6z"/>
	<path style="clip-path:url(#SVGID_00000025430547039000309250000006855685659718030253_);fill:#50AF55;" d="M249.4,13.1
		c0.5,0.5,0.9,1.2,1.2,2l12.8,33.7l-4.4,1.3l-3.2-8.4h-17l-2.6,6.9c-0.2,0.4-0.4,0.8-0.8,1.1c-0.4,0.3-0.8,0.4-1.3,0.4
		c-0.6,0-1.1-0.2-1.5-0.6c-0.4-0.4-0.6-0.9-0.6-1.5c0-0.4,0.1-0.8,0.3-1.2l11.8-31.6c0.3-0.7,0.6-1.4,1.1-1.9c0.5-0.6,1.1-0.8,2-0.8
		C248.2,12.4,249,12.7,249.4,13.1 M254.5,37.8l-7.2-20.1l-7.2,20.1H254.5z"/>
	<path style="clip-path:url(#SVGID_00000025430547039000309250000006855685659718030253_);fill:#50AF55;" d="M302.5,45.2
		c-0.5,0.7-1,1.3-1.6,1.8c-0.6,0.6-1.4,1.1-2.2,1.4c-0.8,0.4-1.7,0.7-2.5,0.9c-0.8,0.2-1.7,0.4-2.6,0.5c-0.9,0.1-1.7,0.2-2.5,0.2
		c-3.1,0-5.9-0.7-8.4-2s-4.5-3.2-6.1-5.6c-1.1-1.6-1.9-3.4-2.6-5.3c-0.6-1.9-0.9-3.9-0.9-5.9c0-2.4,0.4-4.7,1.1-6.8
		c0.8-2.2,1.8-4.1,3.2-5.8c1.4-1.7,3-3.1,5-4.2c1.9-1.1,4.1-1.8,6.5-2h1.1c1,0,2,0.1,3.1,0.4c1.1,0.2,2.2,0.6,3.3,1
		c1.1,0.4,2.1,0.9,3.1,1.4s1.8,1.1,2.5,1.7c0.2,0.2,0.4,0.4,0.5,0.6c0.1,0.2,0.1,0.5-0.1,0.7l-2.6,5.4c-0.2,0.3-0.6,0.5-1,0.6
		c-0.4,0.1-0.9,0-1.3-0.2c-1-0.8-2-1.5-3-2s-2.2-0.8-3.3-0.8c-0.3,0-0.7,0.1-1.2,0.2c-1.1,0.2-2,0.6-2.8,1.2
		c-0.8,0.6-1.5,1.3-2.1,2.2c-0.6,0.9-1,1.8-1.3,2.9c-0.3,1.1-0.4,2.2-0.4,3.4c0,1.3,0.1,2.5,0.4,3.7s0.7,2.2,1.3,3.1
		c0.6,0.9,1.3,1.6,2.2,2.2c0.9,0.5,1.9,0.8,3.1,0.8c0.9,0,1.7-0.1,2.5-0.4c0.8-0.3,1.5-0.6,2.1-0.9c0.5-0.3,1.1-0.5,1.6-0.7
		c0.5-0.2,1.1-0.3,1.7-0.3c1.3,0,2.4,0.4,3.3,1.2c0.9,0.8,1.4,1.9,1.4,3.1C303.2,43.8,303,44.5,302.5,45.2"/>
	<path style="clip-path:url(#SVGID_00000025430547039000309250000006855685659718030253_);fill:#50AF55;" d="M338.3,38.4
		c-0.9,2.3-2.1,4.3-3.7,6c-1.6,1.7-3.4,3.1-5.6,4.1c-2.2,1-4.6,1.5-7.2,1.5c-2.6,0-5-0.5-7.2-1.5c-2.2-1-4.1-2.4-5.6-4.1
		c-1.6-1.7-2.8-3.7-3.7-6c-0.9-2.3-1.3-4.7-1.3-7.2c0-2.6,0.4-5,1.3-7.3c0.9-2.3,2.1-4.3,3.7-6c1.6-1.7,3.4-3.1,5.6-4.1
		c2.2-1,4.6-1.5,7.2-1.5c2.6,0,5,0.5,7.2,1.5c2.2,1,4.1,2.4,5.6,4.1c1.6,1.7,2.8,3.7,3.7,6c0.9,2.3,1.3,4.7,1.3,7.2
		C339.6,33.7,339.2,36.1,338.3,38.4 M328.5,27.7c-0.3-1.2-0.7-2.4-1.3-3.3c-0.6-1-1.3-1.8-2.2-2.3c-0.9-0.5-2-0.9-3.3-0.9
		c-1.2,0-2.3,0.3-3.2,0.9c-0.9,0.6-1.6,1.4-2.2,2.3c-0.6,1-1,2-1.3,3.2c-0.3,1.2-0.4,2.4-0.4,3.6c0,1.2,0.1,2.4,0.4,3.6
		c0.3,1.2,0.7,2.3,1.3,3.2c0.6,1,1.3,1.8,2.2,2.3c0.9,0.6,1.9,0.9,3.2,0.9c1.2,0,2.2-0.3,3.1-0.8c0.9-0.6,1.7-1.3,2.3-2.2
		c0.6-0.9,1.1-2,1.4-3.2c0.3-1.2,0.5-2.4,0.5-3.6C329,30.2,328.8,28.9,328.5,27.7"/>
	<path style="clip-path:url(#SVGID_00000025430547039000309250000006855685659718030253_);fill:#50AF55;" d="M365.8,50.8
		c-0.3,0.1-0.7,0.2-1.1,0.2c-0.4,0-0.7-0.2-0.9-0.4l-9.1-12.1v6.7c0,0.7-0.1,1.3-0.4,1.9c-0.3,0.6-0.6,1.1-1.1,1.5
		c-0.5,0.4-1,0.8-1.6,1c-0.6,0.3-1.3,0.4-2,0.4c-0.7,0-1.4-0.1-2-0.4c-0.6-0.3-1.2-0.6-1.6-1.1c-0.5-0.4-0.9-1-1.1-1.6
		c-0.3-0.6-0.4-1.2-0.4-1.9V13.8c0-0.3,0.2-0.6,0.5-0.8c0.3-0.2,0.7-0.3,1.2-0.2h0.8h1.2h1.5h1.7c0.9,0,1.8-0.1,2.8-0.1h2.4h1.4
		c0.4,0,0.6,0,0.8,0.1c1.7,0.3,3.3,0.7,4.8,1.3c1.5,0.6,2.8,1.4,3.9,2.3c1.1,1,2,2.2,2.6,3.6c0.6,1.4,1,3,1,4.9
		c0,1.3-0.2,2.5-0.6,3.5c-0.4,1-0.9,2-1.6,2.8c-0.7,0.8-1.5,1.5-2.4,2.1c-0.9,0.6-1.9,1-3,1.4l8.5,10.6c0.3,0.3,0.4,0.6,0.4,0.8
		c0,0.2-0.3,0.5-0.7,0.7L365.8,50.8z M360,22.5c-0.5-0.6-1.1-0.9-1.7-0.9h-3.6v6.1h3.8c0.6,0,1.1-0.3,1.6-0.9
		c0.4-0.6,0.7-1.3,0.7-2.1C360.8,23.9,360.5,23.2,360,22.5"/>
	<path style="clip-path:url(#SVGID_00000025430547039000309250000006855685659718030253_);fill:#50AF55;" d="M403.4,30.4
		c-0.6,1.5-1.5,2.8-2.6,3.9c-1.1,1.1-2.4,1.9-3.9,2.6c-1.5,0.6-3.1,1-4.8,1.2c-0.4,0.1-1.1,0.1-2.1,0.1h-2.7v0.2v2.4
		c0,0.9-0.1,1.8-0.1,2.8c-0.1,0.9-0.2,1.8-0.3,2.5c-0.1,0.8-0.3,1.3-0.6,1.7c-0.4,0.6-0.9,1.1-1.6,1.6c-0.6,0.5-1.5,0.7-2.5,0.7
		c-0.7,0-1.4-0.1-2-0.4c-0.6-0.3-1.2-0.6-1.6-1.1c-0.5-0.5-0.8-1-1.1-1.6c-0.3-0.6-0.4-1.2-0.4-1.9V13.9c0-0.3,0.1-0.5,0.4-0.7
		c0.3-0.2,0.6-0.3,1-0.3h7.5c1.5,0,3,0.1,4.5,0.2c1.5,0.2,2.9,0.4,4.3,0.7v-0.1c2.3,0.5,4.4,1.7,6.1,3.3c1.7,1.7,2.7,3.8,3.1,6.3
		c0.1,0.6,0.2,1.3,0.2,2.1C404.3,27.3,404,28.9,403.4,30.4 M393.3,22.8c-0.6-0.7-1.4-1.1-2.2-1.1h-3.6v7.6h3.6
		c0.9,0,1.6-0.4,2.2-1.1c0.6-0.7,0.9-1.6,0.9-2.7S393.9,23.5,393.3,22.8"/>
	<path style="clip-path:url(#SVGID_00000025430547039000309250000006855685659718030253_);fill:#50AF55;" d="M439.3,41.1
		c-0.8,1.9-1.9,3.5-3.4,4.8c-1.4,1.3-3.2,2.3-5.1,3c-2,0.7-4.1,1-6.4,1c-2.3,0-4.5-0.4-6.4-1c-2-0.7-3.7-1.7-5.1-3
		c-1.4-1.3-2.6-2.9-3.4-4.8c-0.8-1.9-1.2-4-1.2-6.5V13.8c0-0.3,0.1-0.5,0.4-0.7c0.3-0.2,0.7-0.3,1.1-0.3h7.4c0.4,0,0.8,0.1,1,0.3
		c0.3,0.2,0.4,0.5,0.4,0.7v21c0,2,0.5,3.6,1.6,4.8c1.1,1.2,2.5,1.8,4.2,1.8c1.7,0,3.1-0.6,4.2-1.8c1.1-1.2,1.6-2.8,1.6-4.8V17.3
		c0-0.7,0.1-1.3,0.4-1.9c0.3-0.6,0.6-1.1,1.1-1.6s1-0.8,1.6-1.1c0.6-0.3,1.3-0.4,2-0.4c0.7,0,1.4,0.1,2,0.4c0.6,0.3,1.2,0.6,1.7,1.1
		s0.9,1,1.1,1.6c0.3,0.6,0.4,1.2,0.4,1.9v17.3C440.6,37.1,440.1,39.2,439.3,41.1"/>
	<path style="clip-path:url(#SVGID_00000025430547039000309250000006855685659718030253_);fill:#50AF55;" d="M463.4,27.4
		c1.5,0.6,2.8,1.3,4.1,2.1c1.2,0.9,2.2,1.9,3,3.2c0.8,1.3,1.2,2.9,1.2,4.7c0,1.3-0.2,2.5-0.7,3.7c-0.4,1.2-1,2.3-1.8,3.4
		c-1.4,1.9-3,3.3-5,4.1c-2,0.9-4.1,1.3-6.4,1.3c-0.9,0-1.9-0.1-3-0.3c-1.2-0.2-2.3-0.5-3.6-0.8c-1.2-0.3-2.4-0.7-3.5-1.1
		c-1.1-0.4-2.1-0.8-2.8-1.2c-0.3-0.1-0.5-0.2-0.7-0.5c-0.2-0.3-0.2-0.5-0.2-0.7c0.1-0.9,0.3-1.6,0.5-2.2c0.2-0.6,0.4-1.2,0.6-1.8
		c0.1-0.3,0.1-0.5,0.2-0.7c0.1-0.2,0.1-0.4,0.2-0.5l-0.1,0.1c0.1-0.1,0.1-0.3,0.2-0.5c0.1-0.2,0.1-0.4,0.2-0.6c0-0.1,0-0.2,0.1-0.3
		V39v-0.2c0-0.4,0.2-0.7,0.6-0.9c0.4-0.2,0.9-0.2,1.5-0.1c0.2,0.1,0.5,0.2,0.9,0.3c0.4,0.2,0.8,0.3,1.3,0.5c0.5,0.2,0.9,0.4,1.4,0.5
		c0.5,0.2,0.8,0.3,1.1,0.4c1,0.4,1.9,0.7,2.8,1c0.9,0.3,1.7,0.4,2.5,0.4c0.4,0,0.8-0.1,1.2-0.3c0.4-0.2,0.7-0.4,1-0.7
		c0.3-0.3,0.6-0.6,0.7-1c0.2-0.4,0.3-0.9,0.3-1.3c0-0.3-0.1-0.6-0.3-0.8c-0.2-0.2-0.5-0.5-0.8-0.7c-0.3-0.2-0.6-0.4-0.9-0.5
		c-0.3-0.1-0.6-0.3-0.8-0.4v0.1c-0.8-0.4-1.6-0.7-2.4-1c-1.3-0.4-2.6-0.9-3.8-1.4c-1.3-0.5-2.4-1.2-3.4-1.9c-1-0.8-1.8-1.8-2.5-2.9
		c-0.6-1.2-0.9-2.6-0.9-4.3c0-1.8,0.4-3.5,1.2-4.9c0.8-1.4,1.8-2.7,3.1-3.6c1.3-1,2.7-1.7,4.3-2.2c1.6-0.5,3.2-0.8,4.9-0.8
		c0.8,0,1.9,0.1,3.1,0.3c1.2,0.2,2.4,0.6,3.5,1.1c1.1,0.5,2.1,1.2,2.9,2c0.8,0.8,1.2,1.8,1.2,3c0,1.2-0.4,2.2-1.3,3
		c-0.9,0.8-1.9,1.3-3.2,1.3c-0.7,0-1.4-0.1-1.9-0.3c-0.6-0.2-1.2-0.4-1.7-0.7c-0.6-0.2-1.2-0.5-1.8-0.7c-0.6-0.2-1.2-0.3-1.9-0.3
		c-0.4,0-0.9,0.2-1.4,0.5c-0.5,0.3-0.7,0.8-0.7,1.5c0,0.4,0.1,0.7,0.3,1c0.2,0.3,0.4,0.5,0.7,0.7c0.3,0.2,0.6,0.4,1,0.5
		c0.4,0.1,0.7,0.3,1,0.4c0.2,0.1,0.4,0.2,0.6,0.2l-0.2-0.1h0.2v0.1C460.5,26.4,461.9,26.9,463.4,27.4"/>
</g>
<g>
	<path class="st1" d="M268.2,96.2c0-10.3,0-20.6,0-31c68,0,136,0,204,0c0,10.3,0,20.6,0,31C404.2,96.2,336.2,96.2,268.2,96.2z"/>
	<path class="st2" d="M268.2,96.2c68,0,136,0,204,0c0,0.1-0.1,0.2-0.1,0.2c-0.3,0-0.6,0-1,0c-67.3,0-134.6,0-201.8,0
		C269,96.4,268.6,96.3,268.2,96.2z"/>
</g>
<g>
	<path class="st3" d="M280.2,71.6h-7.1v-2.5h17.1v2.5h-7.1v20.8h-2.9V71.6z"/>
	<path class="st3" d="M294.2,69.1h13.4v2.5h-10.4v7.3h8.8v2.5h-8.8v8.4H308v2.5h-13.8V69.1z"/>
	<path class="st3" d="M325.5,92.4l-5.6-9.8h-4.2v9.8h-3V69.1h7.3c1.2,0,2.3,0.1,3.3,0.3c1,0.2,1.9,0.6,2.6,1.1s1.3,1.2,1.7,2
		c0.4,0.8,0.6,1.8,0.6,3.1c0,1.8-0.5,3.3-1.4,4.4c-0.9,1.1-2.2,1.8-3.8,2.2l5.9,10.2H325.5z M315.7,80.2h3.9c1.8,0,3.2-0.4,4.2-1.1
		c1-0.7,1.4-1.9,1.4-3.4c0-1.5-0.5-2.6-1.4-3.2c-1-0.6-2.3-0.9-4.2-0.9h-3.9V80.2z"/>
	<path class="st3" d="M345.9,92.4l-5.6-9.8h-4.2v9.8h-3V69.1h7.3c1.2,0,2.3,0.1,3.3,0.3c1,0.2,1.9,0.6,2.6,1.1s1.3,1.2,1.7,2
		c0.4,0.8,0.6,1.8,0.6,3.1c0,1.8-0.5,3.3-1.4,4.4c-0.9,1.1-2.2,1.8-3.8,2.2l5.9,10.2H345.9z M336.1,80.2h3.9c1.8,0,3.2-0.4,4.2-1.1
		c1-0.7,1.4-1.9,1.4-3.4c0-1.5-0.5-2.6-1.4-3.2c-1-0.6-2.3-0.9-4.2-0.9h-3.9V80.2z"/>
	<path class="st3" d="M353.6,69.1h3v23.3h-3V69.1z"/>
	<path class="st3" d="M367.6,71.6h-7.1v-2.5h17.1v2.5h-7.1v20.8h-2.9V71.6z"/>
	<path class="st3" d="M389.4,92.9c-1.5,0-2.8-0.3-4-0.9c-1.2-0.6-2.3-1.4-3.2-2.4c-0.9-1.1-1.6-2.3-2.1-3.8s-0.7-3.2-0.7-5.1
		c0-1.9,0.2-3.5,0.7-5s1.2-2.7,2.1-3.8c0.9-1,1.9-1.8,3.2-2.4c1.2-0.5,2.6-0.8,4-0.8c1.4,0,2.8,0.3,4,0.8c1.2,0.6,2.3,1.3,3.2,2.4
		s1.6,2.3,2.1,3.8c0.5,1.5,0.7,3.1,0.7,5c0,1.9-0.2,3.6-0.7,5.1c-0.5,1.5-1.2,2.8-2.1,3.8s-1.9,1.9-3.2,2.4
		C392.2,92.6,390.8,92.9,389.4,92.9z M389.4,90.3c1,0,2-0.2,2.8-0.7s1.6-1.1,2.2-1.9s1.1-1.8,1.4-3c0.3-1.2,0.5-2.5,0.5-4
		c0-1.4-0.2-2.7-0.5-3.9c-0.3-1.2-0.8-2.1-1.4-2.9s-1.3-1.4-2.2-1.9c-0.8-0.4-1.8-0.7-2.8-0.7c-1,0-2,0.2-2.8,0.7
		c-0.9,0.4-1.6,1.1-2.2,1.9s-1.1,1.8-1.4,2.9c-0.3,1.2-0.5,2.5-0.5,3.9c0,1.5,0.2,2.8,0.5,4c0.3,1.2,0.8,2.2,1.4,3s1.3,1.5,2.2,1.9
		S388.3,90.3,389.4,90.3z"/>
	<path class="st3" d="M404.2,69.1h3v23.3h-3V69.1z"/>
	<path class="st3" d="M426.1,92.4l-5.6-9.8h-4.2v9.8h-3V69.1h7.3c1.2,0,2.3,0.1,3.3,0.3c1,0.2,1.9,0.6,2.6,1.1s1.3,1.2,1.7,2
		c0.4,0.8,0.6,1.8,0.6,3.1c0,1.8-0.5,3.3-1.4,4.4c-0.9,1.1-2.2,1.8-3.8,2.2l5.9,10.2H426.1z M416.3,80.2h3.9c1.8,0,3.2-0.4,4.2-1.1
		c1-0.7,1.4-1.9,1.4-3.4c0-1.5-0.5-2.6-1.4-3.2c-1-0.6-2.3-0.9-4.2-0.9h-3.9V80.2z"/>
	<path class="st3" d="M433.8,69.1h13.4v2.5h-10.4v7.3h8.8v2.5h-8.8v8.4h10.8v2.5h-13.8V69.1z"/>
	<path class="st3" d="M452.4,87.4c0.8,0.9,1.8,1.6,2.9,2.1c1.1,0.5,2.3,0.8,3.5,0.8c1.5,0,2.7-0.3,3.6-1c0.9-0.7,1.3-1.6,1.3-2.8
		c0-0.6-0.1-1.1-0.3-1.5c-0.2-0.4-0.5-0.8-0.8-1.1c-0.4-0.3-0.8-0.6-1.2-0.8c-0.5-0.2-1-0.5-1.5-0.7l-3.3-1.5
		c-0.5-0.2-1.1-0.5-1.7-0.9c-0.6-0.3-1.1-0.7-1.5-1.2c-0.5-0.5-0.8-1-1.1-1.7c-0.3-0.7-0.4-1.4-0.4-2.3c0-0.9,0.2-1.7,0.5-2.4
		c0.4-0.8,0.9-1.4,1.5-2c0.7-0.6,1.4-1,2.3-1.3c0.9-0.3,1.9-0.5,2.9-0.5c1.4,0,2.7,0.3,3.9,0.8s2.2,1.2,3,2.1l-1.6,1.9
		c-0.7-0.7-1.5-1.2-2.4-1.6c-0.9-0.4-1.8-0.6-2.9-0.6c-1.3,0-2.4,0.3-3.2,0.9s-1.2,1.4-1.2,2.5c0,0.6,0.1,1,0.4,1.4
		c0.2,0.4,0.5,0.7,0.9,1s0.8,0.6,1.2,0.8c0.5,0.2,0.9,0.4,1.4,0.6l3.3,1.4c0.7,0.3,1.3,0.6,1.9,1c0.6,0.4,1.1,0.8,1.5,1.3
		c0.4,0.5,0.8,1.1,1,1.7c0.2,0.7,0.4,1.4,0.4,2.3c0,0.9-0.2,1.8-0.6,2.6s-0.9,1.5-1.6,2.1s-1.5,1.1-2.5,1.4c-1,0.3-2.1,0.5-3.3,0.5
		c-1.6,0-3.1-0.3-4.5-0.9s-2.6-1.5-3.6-2.5L452.4,87.4z"/>
</g>
</svg>
